# xmcd
#
# Track frame offsets:
#	150
#	20444
#	41230
#	59483
#	81591
#	95842
#	114135
#	132970
#	149593
#	165814
#	180996
#	198423
#	216733
#	233012
#	254496
#
# Disc length: 3883 seconds
#
# Revision: 1
# Processed by: cddbd v1.5.2PL0 Copyright (c) Steve Scherf et al.
# Submitted via: EasyCDDAExtractor 15.3.0.1
#
DISCID=db0f290f
DTITLE=Ricky Martin - Playlist - The Very Best Of Ricky Martin
DYEAR=2012
DGENRE=Pop
TTITLE0=Maria (Pablo Flores Spanglish Radio Mix)
TTITLE1=The Cup Of Life (English Radio Mix)
TTITLE2=Livin' La Vida Loca
TTITLE3=She's All I Ever Had
TTITLE4=Shake Your Bon-Bon
TTITLE5=She Bangs (Radio Mix)
TTITLE6=Nobody Wants To Be Lonely (With Christina Aguilera)
TTITLE7=Loaded (Fused Re-Loaded Mix 03)
TTITLE8=I Don't Care (Featuring Amerie) (Ralphi and Craig's Club Radio Mix)
TTITLE9=It's Alright (Radio Mix)
TTITLE10=Sleep Tight
TTITLE11=Save The Dance
TTITLE12=The Best Thing About Me Is You (Featuring Joss Stone)
TTITLE13=Shine
TTITLE14=Freak Of Nature (Big Room Club Vocal Remix)
EXTD=
EXTT0=
EXTT1=
EXTT2=
EXTT3=
EXTT4=
EXTT5=
EXTT6=
EXTT7=
EXTT8=
EXTT9=
EXTT10=
EXTT11=
EXTT12=
EXTT13=
EXTT14=
PLAYORDER=
